<?xml version="1.0" encoding="UTF-8" standalone="no"?>
<!-- Created with Inkscape (http://www.inkscape.org/) -->

<svg
   xmlns:dc="http://purl.org/dc/elements/1.1/"
   xmlns:cc="http://creativecommons.org/ns#"
   xmlns:rdf="http://www.w3.org/1999/02/22-rdf-syntax-ns#"
   xmlns:svg="http://www.w3.org/2000/svg"
   xmlns="http://www.w3.org/2000/svg"
   xmlns:inkscape="http://www.inkscape.org/namespaces/inkscape"
   version="1.1"
   width="585"
   height="585"
   id="svg2">
  <defs
     id="defs4">
    <inkscape:path-effect
       effect="spiro"
       id="path-effect3004" />
  </defs>
  <metadata
     id="metadata7">
    <rdf:RDF>
      <cc:Work
         rdf:about="">
        <dc:format>image/svg+xml</dc:format>
        <dc:type
           rdf:resource="http://purl.org/dc/dcmitype/StillImage" />
        <dc:title></dc:title>
      </cc:Work>
    </rdf:RDF>
  </metadata>
  <g
     transform="translate(0,-467.35975)"
     id="layer1">
    <path
       d="m 292.3024,632.63911 c -36.00609,0.19484 -71.04977,11.57558 -80.84375,31.59375 -7.40279,15.13075 -0.15981,31.049 19.03125,41.78125 10.85865,6.07249 30.79572,11.38762 48.125,12.84375 43.71856,3.67355 86.07831,-10.1829 95.90625,-31.34375 6.50568,-14.00762 0.80596,-29.05145 -14.71875,-38.78125 -17.77888,-11.14255 -42.86426,-16.22706 -67.5,-16.09375 z m -0.1875,13.78125 c 22.12232,0.0293 39.43015,3.65576 54.28125,11.34375 27.40564,14.18712 17.5805,34.513 -21.40625,44.34375 -9.11049,2.29727 -12.84518,2.65517 -30.375,2.96875 -21.92638,0.39222 -29.89418,-0.52968 -44.5625,-5.125 -34.29447,-10.74384 -39.46177,-30.11821 -11.53125,-43.375 15.07772,-7.1564 31.07596,-10.18615 53.59375,-10.15625 z"
       id="path3532"
       style="fill:#ffffff" />
    <path
       d="m 526.06435,623.4544 c -1.93815,-0.12978 -3.829,2.93441 -4.875,8.6875 -4.68181,25.75035 -11.58142,40.50773 -26.03125,55.625 -15.68629,16.41083 -29.09024,23.88395 -72.0625,40.125 -47.43938,17.92935 -69.18988,31.97621 -78.4375,50.6875 -2.90225,5.87229 -3.83506,9.06906 -4.28125,14.96875 -0.69461,9.18426 0.4285,11.84375 4.90625,11.84375 4.43295,0 9.78472,-6.00716 15.4375,-17.3125 13.86787,-27.73523 28.74739,-38.62937 78.375,-57.46875 32.82059,-12.45919 46.34528,-19.2174 58.9375,-29.40625 12.66955,-10.25141 21.46995,-24.72985 25.65625,-42.21875 l 2.40625,-10.09375 -0.4375,15 c -0.53663,17.76407 -2.76149,28.11276 -8.5625,40 -8.47676,17.37032 -16.54741,24.38248 -54,46.75 -6.48405,3.87242 -10.65543,6.98231 -10.875,8.15625 -0.32453,1.73509 0.15161,1.86673 5.21875,1.34375 6.71775,-0.69333 22.99339,-7.42889 34.53125,-14.28125 8.94451,-5.31217 23.6052,-18.28553 27.15625,-24.03125 3.77089,-6.10144 3.36764,-2.82429 -0.53125,4.28125 -5.38118,9.80693 -12.57222,18.22439 -24.25,28.40625 -5.6375,4.91534 -10.25,9.37301 -10.25,9.90625 0,0.53324 1.60824,0.96875 3.59375,0.96875 4.50054,0 13.00128,-4.44468 21.21875,-11.09375 3.40208,-2.75274 6.1875,-4.71926 6.1875,-4.375 0,1.83501 -7.88732,12.07896 -12.65625,16.4375 -14.16471,12.94574 -32.62455,19.51595 -74.5,26.5 -11.74486,1.95882 -22.58125,4.04404 -24.09375,4.65625 -3.12391,1.26445 -3.59268,3.31803 -1,4.375 3.36503,1.37183 23.84101,1.75171 34.15625,0.625 5.72229,-0.62504 10.56363,-0.96762 10.78125,-0.75 0.89747,0.89746 -3.83288,12.06737 -6.90625,16.3125 -9.28783,12.82892 -28.34804,17.98305 -51.53125,13.9375 -11.26163,-1.96519 -12.25,-1.99863 -12.25,-0.25 0,1.65628 3.57694,3.14661 11,4.5625 3.025,0.577 6.4,1.24552 7.5,1.5 4.97568,1.1511 25.20183,-0.34826 31.5625,-2.34375 7.68202,-2.41003 17.23195,-8.29335 21.34375,-13.15625 3.80145,-4.49587 7.57883,-12.84255 8.40625,-18.5625 l 0.6875,-4.59375 8.5,-2.40625 c 9.96198,-2.82616 26.37378,-10.51589 35.09375,-16.4375 9.85951,-6.69547 17.34063,-15.0027 22.03125,-24.46875 3.61551,-7.2964 4.24212,-9.56436 4.875,-17.65625 0.51433,-6.57613 1.50351,-11.12325 3.375,-15.5 4.67364,-10.92996 5.71201,-21.92853 3.21875,-33.75 -0.87443,-4.146 -0.95124,-7.62588 -0.3125,-11.5 1.88381,-11.42574 -0.9713,-40.19689 -4.96875,-50.1875 -0.99496,-2.48665 -2.18086,-3.73463 -3.34375,-3.8125 z"
       id="path3539"
       style="fill:#ffffff" />
    <path
       d="m 58.01977,622.46083 c 1.93815,-0.12978 3.829,2.93441 4.875,8.6875 4.68181,25.75035 11.58142,40.50773 26.03125,55.625 15.68629,16.41083 29.09024,23.88395 72.0625,40.125 47.43938,17.92935 69.18988,31.97621 78.4375,50.6875 2.90225,5.87229 3.83506,9.06906 4.28125,14.96875 0.69461,9.18426 -0.4285,11.84375 -4.90625,11.84375 -4.43295,0 -9.78472,-6.00716 -15.4375,-17.3125 -13.86787,-27.73523 -28.74739,-38.62937 -78.375,-57.46875 C 112.16793,717.15789 98.64324,710.39968 86.05102,700.21083 73.38147,689.95942 64.58107,675.48098 60.39477,657.99208 l -2.40625,-10.09375 0.4375,15 c 0.53663,17.76407 2.76149,28.11276 8.5625,40 8.47676,17.37032 16.54741,24.38248 54,46.75 6.48405,3.87242 10.65543,6.98231 10.875,8.15625 0.32453,1.73509 -0.15161,1.86673 -5.21875,1.34375 -6.71775,-0.69333 -22.99339,-7.42889 -34.53125,-14.28125 -8.94451,-5.31217 -23.6052,-18.28553 -27.15625,-24.03125 -3.77089,-6.10144 -3.36764,-2.82429 0.53125,4.28125 5.38118,9.80693 12.57222,18.22439 24.25,28.40625 5.6375,4.91534 10.25,9.37301 10.25,9.90625 0,0.53324 -1.60824,0.96875 -3.59375,0.96875 -4.50054,0 -13.00128,-4.44468 -21.21875,-11.09375 -3.40208,-2.75274 -6.1875,-4.71926 -6.1875,-4.375 0,1.83501 7.88732,12.07896 12.65625,16.4375 14.16471,12.94574 32.62455,19.51595 74.5,26.5 11.74486,1.95882 22.58125,4.04404 24.09375,4.65625 3.12391,1.26445 3.59268,3.31803 1,4.375 -3.36503,1.37183 -23.84101,1.75171 -34.15625,0.625 -5.72229,-0.62504 -10.56363,-0.96762 -10.78125,-0.75 -0.89747,0.89746 3.83288,12.06737 6.90625,16.3125 9.28783,12.82892 28.34804,17.98305 51.53125,13.9375 11.26163,-1.96519 12.25,-1.99863 12.25,-0.25 0,1.65628 -3.57694,3.14661 -11,4.5625 -3.025,0.577 -6.4,1.24552 -7.5,1.5 -4.97568,1.1511 -25.20183,-0.34826 -31.5625,-2.34375 -7.68202,-2.41003 -17.23195,-8.29335 -21.34375,-13.15625 -3.80145,-4.49587 -7.57883,-12.84255 -8.40625,-18.5625 l -0.6875,-4.59375 -8.5,-2.40625 c -9.96198,-2.82616 -26.37378,-10.51589 -35.09375,-16.4375 -9.85951,-6.69547 -17.34063,-15.0027 -22.03125,-24.46875 -3.61551,-7.2964 -4.24212,-9.56436 -4.875,-17.65625 -0.51433,-6.57613 -1.50351,-11.12325 -3.375,-15.5 -4.67364,-10.92996 -5.71201,-21.92853 -3.21875,-33.75 0.87443,-4.146 0.95124,-7.62588 0.3125,-11.5 -1.88381,-11.42574 0.9713,-40.19689 4.96875,-50.1875 0.99496,-2.48665 2.18086,-3.73463 3.34375,-3.8125 z"
       id="path3543"
       style="fill:#ffffff" />
  </g>
</svg>
